<svg width="60" height="60" viewBox="0 0 60 60" fill="none" xmlns="http://www.w3.org/2000/svg">
<g id="basketball-svgrepo-com 1" clip-path="url(#clip0_2632_1285)">
<g id="Group">
<g id="Group_2">
<g id="Group_3">
<path id="Vector" d="M51.6887 9.27322C48.917 6.3735 45.6555 4.09266 41.995 2.49405C38.2046 0.838795 34.1689 -0.000488281 30 -0.000488281C25.8311 -0.000488281 21.7954 0.838795 18.005 2.49417C14.3445 4.09278 11.0831 6.37362 8.31132 9.27322C2.95171 14.8802 0 22.2409 0 29.9995C0 37.7582 2.95171 45.1188 8.31132 50.7258C11.083 53.6255 14.3445 55.9064 18.005 57.505C21.7954 59.1602 25.8311 59.9995 30 59.9995C34.1689 59.9995 38.2046 59.1602 41.995 57.5049C45.6555 55.9062 48.917 53.6254 51.6887 50.7257C57.0483 45.1188 60 37.7582 60 29.9995C60 22.2409 57.0483 14.8802 51.6887 9.27322ZM28.8048 57.5827C22.0369 57.2984 15.7428 54.6049 10.8631 49.9013C15.7429 45.197 22.0364 42.502 28.8048 42.2178V57.5827ZM28.8048 39.8259C25.0597 39.9712 21.432 40.7983 18.005 42.2949C14.7337 43.7236 11.7814 45.6968 9.21215 48.17C5.0657 43.4343 2.6847 37.4859 2.41649 31.1947H28.8048V39.8259ZM28.8048 28.8043H2.41649C2.6847 22.5131 5.0657 16.5648 9.21215 11.8291C11.7814 14.3022 14.7338 16.2755 18.005 17.7042C21.432 19.2007 25.0597 20.0278 28.8048 20.1731V28.8043ZM28.8048 17.7813C22.0364 17.497 15.7429 14.8021 10.8631 10.0977C15.7428 5.39413 22.0369 2.70059 28.8048 2.41636V17.7813ZM31.1952 2.41636C37.9632 2.70059 44.2572 5.39413 49.1369 10.0977C44.2571 14.8021 37.9636 17.497 31.1952 17.7813V2.41636ZM31.1952 20.1731C34.9403 20.0278 38.5681 19.2007 41.995 17.7042C45.2663 16.2755 48.2186 14.3022 50.7878 11.8291C54.9343 16.5649 57.3152 22.5131 57.5835 28.8043H31.1952V20.1731ZM31.1952 57.5827V42.2178C37.9636 42.502 44.2571 45.197 49.1369 49.9013C44.2572 54.6049 37.9632 57.2984 31.1952 57.5827ZM50.7878 48.17C48.2186 45.6968 45.2662 43.7235 41.995 42.2949C38.5681 40.7983 34.9403 39.9712 31.1952 39.8259V31.1947H57.5835C57.3153 37.4859 54.9343 43.4343 50.7878 48.17Z" fill="#999999"/>
<path id="Vector_2" d="M14.8049 10.9499C15.0382 11.2761 15.4052 11.4498 15.7779 11.4498C16.0186 11.4498 16.2617 11.3772 16.4725 11.2264C19.2089 9.26825 22.2668 7.95913 25.5611 7.33522C26.2098 7.21247 26.636 6.58713 26.5131 5.93849C26.3904 5.28996 25.7648 4.86339 25.1164 4.9865C21.4784 5.6753 18.1021 7.12068 15.0813 9.28223C14.5444 9.6665 14.4207 10.413 14.8049 10.9499Z" fill="#FE3A19"/>
<path id="Vector_3" d="M10.7399 15.0392C10.2008 14.6583 9.45493 14.7867 9.07402 15.3257C6.88509 18.4241 5.44677 21.8847 4.79908 25.6114C4.68613 26.262 5.12167 26.8807 5.77199 26.9938C5.84131 27.0059 5.91003 27.0116 5.97804 27.0116C6.54828 27.0116 7.05326 26.602 7.15426 26.0209C7.74075 22.6461 9.04354 19.5118 11.0264 16.7051C11.4073 16.1659 11.279 15.4202 10.7399 15.0392Z" fill="#FE3A19"/>
</g>
</g>
</g>
</g>
<defs>
<clipPath id="clip0_2632_1285">
<rect width="60" height="60" fill="white" transform="translate(0 -0.000488281)"/>
</clipPath>
</defs>
</svg>
