<svg width="60" height="60" viewBox="0 0 60 60" fill="none" xmlns="http://www.w3.org/2000/svg">
<g id="boxing-svgrepo-com 1" clip-path="url(#clip0_2632_1205)">
<g id="Group">
<g id="Group_2">
<g id="Group_3">
<path id="Vector" d="M47.6604 11.9385C46.5058 9.66971 45.0157 7.42775 41.9011 6.32691C41.3775 6.13896 40.8003 6.42089 40.6123 6.94446C40.4244 7.46803 40.7063 8.0453 41.2299 8.23325C43.5389 9.03874 44.7472 10.6631 45.8614 12.8514C46.036 13.2005 46.3984 13.4018 46.7609 13.4018C46.922 13.4018 47.0697 13.375 47.2174 13.2944C47.7141 13.0394 47.9154 12.4352 47.6604 11.9385Z" fill="#FE3A19"/>
<path id="Vector_2" d="M45.1409 3.68352C42.7113 2.79905 36.6305 0.792476 32.1241 1.0169C28.5136 1.0301 24.0345 2.57463 21.6727 3.49871C17.5057 4.91123 14.1803 9.87485 14.3974 14.35C14.3974 14.3632 14.3974 14.3632 14.3974 14.3764L14.6961 18.1784L13.2844 18.152H13.2709C9.80967 18.152 7 20.8582 7 24.1717V24.9109C7 26.4819 7.67866 28.0264 8.85954 29.1617L14.0038 34.0857V34.2309C14.0038 38.7853 16.9899 42.6796 21.1977 44.3034V56.5936C21.1977 58.4418 22.8264 59.9995 24.7403 59.9995H43.0371C44.9645 59.9995 46.5797 58.4418 46.5797 56.5936V44.1054C46.5797 44.079 46.5797 44.0394 46.5797 44.013C47.7063 43.4849 48.7514 42.7853 49.6608 41.9008C51.819 39.8414 52.9998 37.1088 52.9998 34.2309V14.6669C53.027 10.0069 49.4979 5.08284 45.1409 3.68352ZM24.7674 58.0457C23.9666 58.0325 23.2608 57.3593 23.2608 56.6068V45.1086H25.5547H34.038L30.6718 48.4617C30.2782 48.8446 30.2782 49.465 30.6718 49.8479L35.0152 54.1778L30.9704 58.0457H24.7674ZM44.5708 56.6068C44.5708 57.3725 43.865 58.0325 43.0642 58.0325H33.8751L37.1598 54.8907C37.5535 54.5078 37.567 53.8874 37.1734 53.4914L32.8164 49.1482L36.8748 45.1086H41.7069H44.5708V56.6068ZM50.991 34.2441C50.991 39.0625 46.729 43.1285 41.6933 43.1285H25.5411C20.3018 43.1285 16.0534 39.1417 16.0534 34.2441V33.6897C16.0534 33.4257 15.9448 33.1748 15.7548 32.99L10.3119 27.7756C9.52463 27.0231 9.06314 25.967 9.06314 24.9373V24.1981C9.06314 21.9407 10.9227 20.1585 13.298 20.1585L25.5547 20.3433H25.5682C26.8034 20.3433 27.9979 20.9242 28.8123 21.4258C29.3823 22.0199 29.8031 23.0232 29.8031 23.8284V27.5512C29.8031 28.5544 29.3552 29.5973 28.5951 30.3498C27.7535 30.9834 26.6134 31.4059 25.7718 31.4059H24.4145C23.3287 31.4059 22.2156 30.957 21.4284 30.2046L20.0711 28.8977C19.6639 28.5148 19.0259 28.5148 18.6323 28.9109C18.2387 29.3069 18.2387 29.9274 18.6459 30.3102L20.0032 31.6171C21.1841 32.7392 22.7857 33.386 24.4145 33.386H25.7718C27.102 33.386 28.6765 32.8052 29.8981 31.8679C29.9253 31.8415 29.9524 31.8151 29.9796 31.8019C31.1061 30.7326 31.7712 29.2805 31.8391 27.802H42.1141C43.7293 27.802 45.3174 27.1683 46.4847 26.0594L47.6248 25.1486C48.0592 24.8053 48.127 24.1717 47.7606 23.7492C47.4077 23.3268 46.7561 23.2608 46.3218 23.6172L45.1545 24.5545C45.1273 24.5677 45.1138 24.5941 45.0866 24.6205C44.2994 25.373 43.1864 25.8218 42.1005 25.8218H31.8255V23.8284C31.8255 22.4687 31.1604 20.911 30.156 19.9605C30.1017 19.9209 30.061 19.8681 30.0067 19.8417C28.5001 18.878 26.9663 18.3764 25.5682 18.3764L16.7728 18.2444L16.4606 14.2708C16.2841 10.6537 19.0531 6.50856 22.3921 5.39967C22.4057 5.39967 22.4328 5.38647 22.4464 5.38647C26.2333 3.89474 29.776 3.03667 32.1784 3.03667C32.192 3.03667 32.2192 3.03667 32.2327 3.03667C35.0967 2.87825 39.6709 3.84194 44.4622 5.58448C44.4758 5.58448 44.4894 5.59769 44.503 5.59769C48.032 6.71978 51.0046 10.9045 51.0046 14.7197V34.2441H50.991Z" fill="#999999"/>
<path id="Vector_3" d="M48.1438 16.6509C48.6999 16.6509 49.1507 16.2002 49.1507 15.6441C49.1507 15.088 48.6999 14.6372 48.1438 14.6372C47.5878 14.6372 47.137 15.088 47.137 15.6441C47.137 16.2002 47.5878 16.6509 48.1438 16.6509Z" fill="#FE3A19"/>
</g>
</g>
</g>
</g>
<defs>
<clipPath id="clip0_2632_1205">
<rect width="60" height="60" fill="white" transform="translate(0 -0.000488281)"/>
</clipPath>
</defs>
</svg>
