<svg width="22" height="22" viewBox="0 0 22 22" fill="none" xmlns="http://www.w3.org/2000/svg">
<path fill-rule="evenodd" clip-rule="evenodd" d="M7.66667 20.1667C8.58714 20.1667 9.33333 19.4205 9.33333 18.5C9.33333 17.5796 8.58714 16.8334 7.66667 16.8334C6.74619 16.8334 6 17.5796 6 18.5C6 19.4205 6.74619 20.1667 7.66667 20.1667Z" stroke="white" stroke-width="2" stroke-linecap="round" stroke-linejoin="round"/>
<path fill-rule="evenodd" clip-rule="evenodd" d="M17.6667 20.1667C18.5871 20.1667 19.3333 19.4205 19.3333 18.5C19.3333 17.5796 18.5871 16.8334 17.6667 16.8334C16.7462 16.8334 16 17.5796 16 18.5C16 19.4205 16.7462 20.1667 17.6667 20.1667Z" stroke="white" stroke-width="2" stroke-linecap="round" stroke-linejoin="round"/>
<path d="M5.7237 5.99992H20.1654L18.7654 12.9916C18.6081 13.7834 17.9059 14.3487 17.0987 14.3333H8.29036C7.44827 14.3404 6.73314 13.7182 6.6237 12.8833L5.35703 3.28325C5.24838 2.45458 4.54279 1.83452 3.70703 1.83325H1.83203" stroke="white" stroke-width="2" stroke-linecap="round" stroke-linejoin="round"/>
</svg>
