<svg width="20" height="20" viewBox="0 0 20 20" fill="none" xmlns="http://www.w3.org/2000/svg">
<path d="M5.83203 2.91675L14.1654 7.08341" stroke="white" stroke-width="2" stroke-linecap="round" stroke-linejoin="round"/>
<path fill-rule="evenodd" clip-rule="evenodd" d="M10.743 1.2083L17.4097 4.54163C17.9761 4.82307 18.3343 5.40084 18.3347 6.0333V13.975C18.3343 14.6074 17.9761 15.1852 17.4097 15.4666L10.743 18.8C10.2735 19.0349 9.72082 19.0349 9.25134 18.8L2.58468 15.4666C2.01884 15.1815 1.6636 14.6002 1.66801 13.9666V6.0333C1.66834 5.40084 2.02663 4.82307 2.59301 4.54163L9.25968 1.2083C9.72687 0.976141 10.2758 0.976141 10.743 1.2083Z" stroke="white" stroke-width="2" stroke-linecap="round" stroke-linejoin="round"/>
<path d="M1.93359 5.1333L10.0003 9.16663L18.0669 5.1333" stroke="white" stroke-width="2" stroke-linecap="round" stroke-linejoin="round"/>
<path d="M10 18.9666V9.16663" stroke="white" stroke-width="2" stroke-linecap="round" stroke-linejoin="round"/>
</svg>
