<svg width="60" height="60" viewBox="0 0 60 60" fill="none" xmlns="http://www.w3.org/2000/svg">
<g id="fitness-gym-svgrepo-com (1) 1" clip-path="url(#clip0_2630_7733)">
<g id="Group">
<g id="Group_2">
<path id="Vector" d="M13.8497 14.8863L11.6335 13.6739L10.4211 11.4577C10.0688 10.815 9.01906 10.816 8.66981 11.4577L7.4584 13.6739L5.24215 14.8863C4.92184 15.0609 4.72327 15.3972 4.72327 15.7614C4.72327 16.1267 4.92284 16.4619 5.24315 16.6376L7.4594 17.849L8.6708 20.0652C8.84543 20.3855 9.18171 20.5851 9.54593 20.5851C9.91015 20.5851 10.2464 20.3865 10.4211 20.0652L11.6335 17.849L13.8487 16.6366C14.169 16.4619 14.3686 16.1257 14.3686 15.7614C14.3686 15.3972 14.17 15.0609 13.8497 14.8863ZM10.4199 16.2384C10.2523 16.3292 10.1146 16.4669 10.0228 16.6346L9.5458 17.5067L9.06883 16.6346C8.97702 16.4669 8.83932 16.3282 8.67168 16.2374L7.80054 15.7614L8.67268 15.2835C8.83932 15.1917 8.97802 15.055 9.06883 14.8873L9.5458 14.0162L10.0228 14.8873C10.1146 15.055 10.2523 15.1927 10.4189 15.2835L11.2911 15.7614L10.4199 16.2384Z" fill="#FE3A19"/>
</g>
</g>
<g id="Group_3">
<g id="Group_4">
<path id="Vector_2" d="M32.8091 3.90975L30.5928 2.69735L29.3814 0.481104C29.0292 -0.161518 27.9794 -0.16052 27.6302 0.481104L26.4188 2.69735L24.2015 3.90975C23.8812 4.08438 23.6826 4.42066 23.6826 4.78488C23.6826 5.1501 23.8822 5.48538 24.2025 5.661L26.4188 6.8724L27.6302 9.08865C27.8048 9.40897 28.1411 9.60854 28.5053 9.60854C28.8695 9.60854 29.2058 9.40996 29.3804 9.08865L30.5928 6.8724L32.8081 5.66C33.1284 5.48538 33.3279 5.1491 33.3279 4.78488C33.3279 4.42066 33.1294 4.08438 32.8091 3.90975ZM29.3793 5.26186C29.2116 5.35266 29.0739 5.49037 28.9821 5.65801L28.5052 6.53014L28.0282 5.65801C27.9364 5.49037 27.7987 5.35166 27.631 5.26086L26.7599 4.78488L27.632 4.3069C27.7987 4.2151 27.9374 4.07839 28.0282 3.91075L28.5052 3.03962L28.9821 3.91075C29.0739 4.07839 29.2116 4.2161 29.3783 4.3069L30.2504 4.78488L29.3793 5.26186Z" fill="#FE3A19"/>
</g>
</g>
<g id="Group_5">
<path id="Vector_3" d="M57.2007 49.0491L48.9424 26.3597L55.667 14.2257C55.9314 13.7498 55.7648 13.15 55.2928 12.8776L52.7004 11.3808C52.2394 11.1144 51.7015 11.0446 51.1856 11.1813C50.6697 11.32 50.2396 11.6503 49.9732 12.1113L49.1091 11.6123C48.4166 11.2142 47.6093 11.1064 46.8369 11.313C46.0646 11.5195 45.419 12.0145 45.0188 12.707L40.5285 20.4853C40.1283 21.1768 40.0225 21.9841 40.2291 22.7564C40.3648 23.2654 40.6362 23.7104 40.9975 24.0746H34.9893H25.0107H20.1492C19.1732 24.0746 18.2572 24.5526 17.6964 25.3509C17.1366 26.1502 17.0019 27.175 17.3352 28.091C17.7653 29.2715 18.8958 30.0638 20.1492 30.0638H24.0129V34.0552V38.0467C24.0129 38.5985 24.4599 39.0445 25.0107 39.0445H34.9893C35.5402 39.0445 35.9872 38.5985 35.9872 38.0467V34.0552V30.0638H44.1756L51.0769 49.0231H48.9594H44.9679H18.0257H14.0343H10.0428H3.05779C1.40733 49.0231 0.064209 50.3663 0.064209 52.0167C0.064209 53.3159 0.901414 54.4136 2.05993 54.8267V57.006C2.05993 58.6565 3.40305 59.9996 5.05351 59.9996H6.05137C7.70184 59.9996 9.04496 58.6565 9.04496 57.006V55.0103H10.0428H14.0343H18.0257H35.9872V56.0082C35.9872 58.2094 37.7774 59.9996 39.9786 59.9996H55.9444C58.1457 59.9996 59.9359 58.2094 59.9359 56.0082V54.0124V52.0167C59.9357 50.4541 58.7293 49.1828 57.2007 49.0491ZM24.0129 28.0681H20.1492C19.731 28.0681 19.3549 27.8036 19.2112 27.4115C19.0984 27.1011 19.1423 26.7678 19.3319 26.4984C19.5215 26.227 19.8199 26.0723 20.1492 26.0723H24.0129V28.0681ZM33.9914 37.0488H26.0085V35.0531H33.9914V37.0488ZM33.9914 33.0574H26.0085V30.0638H33.9914V33.0574ZM33.9914 28.0681H26.0085V26.0723H33.9914V28.0681ZM7.04923 57.006C7.04923 57.5568 6.6012 58.0039 6.05137 58.0039H5.05351C4.50369 58.0039 4.05565 57.5568 4.05565 57.006V55.0103H7.04923V57.006ZM9.04496 53.0146H8.0471H3.05779C2.50797 53.0146 2.05993 52.5675 2.05993 52.0167C2.05993 51.4659 2.50797 51.0189 3.05779 51.0189H9.04496V53.0146ZM13.0364 53.0146H11.0407V51.0189H13.0364V53.0146ZM17.0278 53.0146H15.0321V51.0189H17.0278V53.0146ZM50.955 13.9743C50.955 13.9733 50.955 13.9723 50.955 13.9713L51.5777 13.1101L53.3838 14.117L47.6251 24.5646C47.5633 24.5267 47.5124 24.4967 47.4495 24.4628C47.3896 24.4299 47.3387 24.3959 47.2769 24.366C46.754 24.1076 46.1942 23.9369 45.6104 23.875C45.5705 23.8701 45.4079 23.8661 45.369 23.8621L50.955 13.9743ZM35.9871 28.0681V26.0723H42.3165L43.1787 28.0681H35.9871ZM43.489 23.3452L42.6238 22.8463C42.3933 22.7125 42.2287 22.498 42.1598 22.2416C42.091 21.9841 42.1259 21.7157 42.2596 21.4842L46.75 13.7058C46.8837 13.4753 47.0993 13.3107 47.3557 13.2408C47.4415 13.2189 47.5283 13.2069 47.6151 13.2069C47.7878 13.2069 47.9584 13.2528 48.1131 13.3416L48.9772 13.8406L45.3181 20.177L43.489 23.3452ZM44.8461 26.0723H46.0146C46.1722 26.0723 46.3179 26.1192 46.4536 26.1871C46.5125 26.218 46.5694 26.2569 46.6273 26.2919C46.77 26.4046 46.8877 26.5503 46.9526 26.7289L55.0682 49.0231H53.2002L44.8461 26.0723ZM49.9571 51.0189H51.9528V53.0146H49.9571V51.0189ZM45.9657 51.0189H47.9614V53.0146H45.9657V51.0189ZM36.9849 53.0146H19.0234V51.0189H43.97V53.0146H36.9849ZM57.94 56.0082C57.94 57.1088 57.0449 58.0039 55.9443 58.0039H39.9785C38.8779 58.0039 37.9828 57.1088 37.9828 56.0082V55.0103H44.9678H48.9593H52.9507H57.94V56.0082ZM57.94 53.0146H53.9486V51.0189H56.4931H56.9422C57.492 51.0189 57.94 51.4659 57.94 52.0167V53.0146Z" fill="#999999"/>
<g id="Group 41028">
<path id="Vector 481" d="M14 52.9995L14 50.9995" stroke="#FE3A19" stroke-width="2" stroke-linejoin="round"/>
<path id="Vector 483" d="M18 52.9995L18 50.9995" stroke="#FE3A19" stroke-width="2" stroke-linejoin="round"/>
<path id="Vector 482" d="M10 52.9995L10 50.9995" stroke="#FE3A19" stroke-width="2" stroke-linejoin="round"/>
</g>
<g id="Group 41029">
<path id="Vector 481_2" d="M49 52.9995L49 50.9995" stroke="#FE3A19" stroke-width="2" stroke-linejoin="round"/>
<path id="Vector 483_2" d="M53 52.9995L53 50.9995" stroke="#FE3A19" stroke-width="2" stroke-linejoin="round"/>
<path id="Vector 482_2" d="M45 52.9995L45 50.9995" stroke="#FE3A19" stroke-width="2" stroke-linejoin="round"/>
</g>
</g>
</g>
<defs>
<clipPath id="clip0_2630_7733">
<rect width="60" height="60" fill="white" transform="translate(0 -0.000488281)"/>
</clipPath>
</defs>
</svg>
