<svg width="60" height="60" viewBox="0 0 60 60" fill="none" xmlns="http://www.w3.org/2000/svg">
<g id="football-svgrepo-com 1" clip-path="url(#clip0_2632_1261)">
<g id="Group">
<path id="Vector" d="M51.2128 8.78632C45.5464 3.12002 38.0127 -0.000488281 29.9992 -0.000488281C21.9862 -0.000488281 14.4529 3.12002 8.78668 8.78632C3.12038 14.4527 0 21.9864 0 29.9999C0 38.0131 3.12051 45.5465 8.78668 51.2127C14.4529 56.879 21.9863 59.9995 29.9992 59.9995C38.0126 59.9995 45.5464 56.879 51.2128 51.2128C56.8794 45.5465 60 38.013 60 29.9999C60 21.9864 56.8794 14.4527 51.2128 8.78632ZM51.5277 48.0147H41.5522L36.5925 39.5758L41.7636 30.7772H44.6773C45.2062 30.7772 45.6347 30.3487 45.6347 29.8198C45.6347 29.2909 45.2062 28.8623 44.6773 28.8623H41.5523L36.5926 20.4234L41.7637 11.6248H51.2233C53.4702 14.2166 55.2502 17.2232 56.4341 20.5117L51.5263 28.8624H48.5071C47.9782 28.8624 47.5496 29.291 47.5496 29.8199C47.5496 30.3488 47.9782 30.7773 48.5071 30.7773H51.5262L56.5134 39.2631C55.3833 42.4881 53.6809 45.4461 51.5277 48.0147ZM41.7636 49.9296H49.7676C46.4207 53.2494 42.2454 55.7345 37.5826 57.0437L41.7636 49.9296ZM25.066 38.6183L20.0006 29.9995L25.066 21.3807H34.9342L39.9996 29.9995L34.934 38.6183H25.066ZM18.4478 28.8623H8.47379L3.56591 20.5116C4.74983 17.2231 6.52966 14.2166 8.77647 11.6248H18.2366L23.4075 20.4234L18.4478 28.8623ZM1.91489 29.9999C1.91489 27.58 2.22255 25.2307 2.80072 22.9887L6.81549 29.8198L2.73855 36.7567C2.20174 34.5914 1.91489 32.3287 1.91489 29.9999ZM18.4478 9.70981H10.6005C13.8834 6.56951 17.9244 4.21636 22.4178 2.95496L18.4478 9.70981ZM41.5523 9.70981L37.5826 2.95534C42.0756 4.21675 46.1164 6.56977 49.3991 9.70981H41.5523ZM53.1846 29.8198L57.1993 22.9888C57.7774 25.2307 58.0851 27.58 58.0851 29.9999C58.0851 32.3287 57.7983 34.5914 57.2614 36.7567L53.1846 29.8198ZM35.0136 2.36338L39.9996 10.8471L34.9342 19.4659H25.0658L20.0006 10.8471L24.9867 2.36313C26.6137 2.06862 28.2887 1.91441 29.9992 1.91441C31.7104 1.91441 33.386 2.06875 35.0136 2.36338ZM18.2366 49.9296L22.4178 57.0439C17.7546 55.7349 13.579 53.2496 10.232 49.9296H18.2366ZM24.9867 57.636L20.0006 49.152L21.5591 46.4999C21.8271 46.044 21.6747 45.4573 21.2188 45.1893C20.7634 44.9213 20.1762 45.0737 19.9083 45.5297L18.4478 48.0148H8.47187C6.31877 45.4461 4.61655 42.4882 3.48651 39.263L8.47379 30.7772H18.2366L23.4075 39.5758L21.8488 42.2279C21.5809 42.6836 21.7333 43.2705 22.1891 43.5384C22.3414 43.6281 22.5084 43.6706 22.6734 43.6706C23.0016 43.6706 23.3212 43.5017 23.4997 43.1981L25.066 40.5332H34.9344L39.9998 49.152L35.0138 57.6359C33.3863 57.9304 31.7106 58.0847 29.9995 58.0847C28.2887 58.0846 26.6137 57.9304 24.9867 57.636Z" fill="#999999"/>
<path id="Vector_2" d="M29.0427 30.9569C29.5714 30.9569 30.0001 30.5282 30.0001 29.9994C30.0001 29.4707 29.5714 29.042 29.0427 29.042C28.5139 29.042 28.0852 29.4707 28.0852 29.9994C28.0852 30.5282 28.5139 30.9569 29.0427 30.9569Z" fill="#FE3A19"/>
<path id="Vector_3" d="M29.0427 51.3514C29.5714 51.3514 30.0001 50.9228 30.0001 50.394C30.0001 49.8652 29.5714 49.4365 29.0427 49.4365C28.5139 49.4365 28.0852 49.8652 28.0852 50.394C28.0852 50.9228 28.5139 51.3514 29.0427 51.3514Z" fill="#FE3A19"/>
<path id="Vector_4" d="M13.4477 38.4615C13.9765 38.4615 14.4051 38.0329 14.4051 37.5041C14.4051 36.9753 13.9765 36.5466 13.4477 36.5466C12.9189 36.5466 12.4902 36.9753 12.4902 37.5041C12.4902 38.0329 12.9189 38.4615 13.4477 38.4615Z" fill="#FE3A19"/>
<path id="Vector_5" d="M30.9574 11.1917C31.4862 11.1917 31.9149 10.7631 31.9149 10.2343C31.9149 9.70552 31.4862 9.27686 30.9574 9.27686C30.4287 9.27686 30 9.70552 30 10.2343C30 10.7631 30.4287 11.1917 30.9574 11.1917Z" fill="#FE3A19"/>
<path id="Vector_6" d="M48.4672 21.5375C48.996 21.5375 49.4247 21.1088 49.4247 20.58C49.4247 20.0512 48.996 19.6226 48.4672 19.6226C47.9384 19.6226 47.5098 20.0512 47.5098 20.58C47.5098 21.1088 47.9384 21.5375 48.4672 21.5375Z" fill="#FE3A19"/>
<path id="Vector_7" d="M47.5097 39.4188C48.0385 39.4188 48.4671 38.9901 48.4671 38.4614C48.4671 37.9326 48.0385 37.5039 47.5097 37.5039C46.9809 37.5039 46.5522 37.9326 46.5522 38.4614C46.5522 38.9901 46.9809 39.4188 47.5097 39.4188Z" fill="#FE3A19"/>
<path id="Vector_8" d="M11.5328 19.6227C12.0615 19.6227 12.4902 19.194 12.4902 18.6652C12.4902 18.1364 12.0615 17.7078 11.5328 17.7078C11.004 17.7078 10.5753 18.1364 10.5753 18.6652C10.5753 19.194 11.004 19.6227 11.5328 19.6227Z" fill="#FE3A19"/>
</g>
</g>
<defs>
<clipPath id="clip0_2632_1261">
<rect width="60" height="60" fill="white" transform="translate(0 -0.000488281)"/>
</clipPath>
</defs>
</svg>
