<svg width="20" height="20" viewBox="0 0 20 20" fill="none" xmlns="http://www.w3.org/2000/svg">
<path fill-rule="evenodd" clip-rule="evenodd" d="M17.3651 3.84148C16.5055 2.98147 15.3394 2.49829 14.1235 2.49829C12.9075 2.49829 11.7414 2.98147 10.8818 3.84148L9.99847 4.72481L9.11514 3.84148C7.32482 2.05116 4.42213 2.05116 2.6318 3.84148C0.841482 5.6318 0.841482 8.53449 2.6318 10.3248L3.51514 11.2081L9.99847 17.6915L16.4818 11.2081L17.3651 10.3248C18.2251 9.46521 18.7083 8.29909 18.7083 7.08315C18.7083 5.8672 18.2251 4.70108 17.3651 3.84148Z" stroke="#131313" stroke-width="2" stroke-linecap="round" stroke-linejoin="round"/>
<path d="M10.043 4.73101C12.1945 2.01703 14.7876 2.0984 16.6249 3.24955" stroke="#131313" stroke-width="2" stroke-linecap="round" stroke-linejoin="round"/>
</svg>
