<svg width="20" height="20" viewBox="0 0 20 20" fill="none" xmlns="http://www.w3.org/2000/svg">
<path fill-rule="evenodd" clip-rule="evenodd" d="M17.3651 3.8416C16.5055 2.98159 15.3394 2.49841 14.1235 2.49841C12.9075 2.49841 11.7414 2.98159 10.8818 3.8416L9.99847 4.72493L9.11514 3.8416C7.32482 2.05128 4.42213 2.05128 2.6318 3.8416C0.841482 5.63192 0.841482 8.53461 2.6318 10.3249L3.51514 11.2083L9.99847 17.6916L16.4818 11.2083L17.3651 10.3249C18.2251 9.46533 18.7083 8.29922 18.7083 7.08327C18.7083 5.86732 18.2251 4.7012 17.3651 3.8416Z" stroke="white" stroke-width="2" stroke-linecap="round" stroke-linejoin="round"/>
<path d="M10.043 4.73101C12.1945 2.01703 14.7876 2.0984 16.6249 3.24955" stroke="white" stroke-width="2" stroke-linecap="round" stroke-linejoin="round"/>
</svg>
