<svg width="20" height="20" viewBox="0 0 20 20" fill="none" xmlns="http://www.w3.org/2000/svg">
<g id="person" clip-path="url(#clip0_2549_10849)">
<path id="Vector" d="M10 4.375C11.0312 4.375 11.875 5.21875 11.875 6.25C11.875 7.28125 11.0312 8.125 10 8.125C8.96875 8.125 8.125 7.28125 8.125 6.25C8.125 5.21875 8.96875 4.375 10 4.375ZM10 13.75C12.5312 13.75 15.4375 14.9594 15.625 15.625H4.375C4.59063 14.95 7.47812 13.75 10 13.75ZM10 2.5C7.92812 2.5 6.25 4.17813 6.25 6.25C6.25 8.32187 7.92812 10 10 10C12.0719 10 13.75 8.32187 13.75 6.25C13.75 4.17813 12.0719 2.5 10 2.5ZM10 11.875C7.49687 11.875 2.5 13.1312 2.5 15.625V17.5H17.5V15.625C17.5 13.1312 12.5031 11.875 10 11.875Z" fill="#131313"/>
<path id="Ellipse 549" d="M13.75 6.25C13.75 8.32107 12.0711 10 10 10C7.92893 10 6.25 8.32107 6.25 6.25C6.25 4.17893 7.92893 2.5 10 2.5C12.0711 2.5 13.75 4.17893 13.75 6.25ZM8.12737 6.25C8.12737 7.28423 8.96577 8.12263 10 8.12263C11.0342 8.12263 11.8726 7.28423 11.8726 6.25C11.8726 5.21577 11.0342 4.37737 10 4.37737C8.96577 4.37737 8.12737 5.21577 8.12737 6.25Z" fill="#131313"/>
</g>
<defs>
<clipPath id="clip0_2549_10849">
<rect width="20" height="20" fill="white"/>
</clipPath>
</defs>
</svg>
