<svg width="60" height="60" viewBox="0 0 60 60" fill="none" xmlns="http://www.w3.org/2000/svg">
<g clip-path="url(#clip0_2632_1226)">
<path d="M40.5096 21.5365L38.2486 19.2775L39.7065 17.8186L41.9675 20.0776L40.5096 21.5365ZM40.5107 10.3582L41.9685 11.8161L39.7096 14.075L38.2517 12.6172L40.5107 10.3582ZM54.3603 20.4632L52.7427 18.8466L54.2005 17.3887L55.8182 19.0053L54.3603 20.4632ZM52.7592 15.9463L53.1231 15.5824L51.6652 14.1245L51.3013 14.4884L50.9363 14.1245L49.4785 15.5824L49.8434 15.9463L49.4785 16.3113L50.9363 17.7691L51.3013 17.4052L51.6652 17.7691L53.1231 16.3113L52.7592 15.9463ZM47.17 21.5354L45.7122 20.0776L47.9711 17.8186L49.429 19.2765L47.17 21.5354ZM44.2058 21.5839L43.8409 21.9489L43.4769 21.5839L42.0191 23.0418L42.383 23.4067L42.0191 23.7707L43.4769 25.2285L43.8409 24.8646L44.2058 25.2285L45.6637 23.7707L45.2997 23.4067L45.6637 23.0418L44.2058 21.5839ZM47.9711 28.9959L45.7122 26.7369L47.17 25.2791L49.429 27.538L47.9711 28.9959ZM39.7116 28.9948L38.2538 27.537L40.5127 25.278L41.9706 26.7359L39.7116 28.9948ZM37.8393 30.8661L38.2043 30.5012L36.7464 29.0433L36.3815 29.4083L36.0175 29.0433L34.5597 30.5012L34.9236 30.8661L34.5597 31.2311L36.0175 32.689L36.3815 32.324L36.7464 32.689L38.2043 31.2311L37.8393 30.8661ZM39.4394 35.383L37.8238 33.7664L39.2817 32.3085L40.8973 33.9252L39.4394 35.383ZM32.2533 25.277L34.5143 27.536L33.0564 28.9948L30.7954 26.7359L32.2533 25.277ZM32.8595 35.846L31.4016 34.3881L33.2967 32.4931L34.7545 33.9509L32.8595 35.846ZM25.4001 28.3855L23.9422 26.9277L25.8372 25.0327L27.2951 26.4905L25.4001 28.3855ZM25.862 18.8888L27.4797 20.5055L26.0218 21.9633L24.4041 20.3467L25.862 18.8888ZM29.286 21.5839L28.922 21.9489L28.5571 21.5839L27.0992 23.0418L27.4642 23.4067L27.0992 23.7707L28.5571 25.2285L28.922 24.8646L29.286 25.2285L30.7439 23.7707L30.3799 23.4067L30.7439 23.0418L29.286 21.5839ZM33.0523 17.8176L34.5102 19.2755L32.2502 21.5354L30.7923 20.0776L33.0523 17.8176ZM36.0175 17.7691L36.3815 17.4052L36.7464 17.7691L38.2043 16.3113L37.8393 15.9463L38.2043 15.5824L36.7464 14.1245L36.3815 14.4884L36.0175 14.1245L34.5597 15.5824L34.9236 15.9463L34.5597 16.3113L36.0175 17.7691ZM32.2512 10.3582L34.5102 12.6172L33.0523 14.075L30.7933 11.8161L32.2512 10.3582ZM39.324 5.42787L40.7818 3.97002L42.3985 5.58665L40.9406 7.04451L39.324 5.42787ZM47.3628 3.50709L48.8207 4.96495L46.9257 6.85996L45.4678 5.4021L47.3628 3.50709ZM44.2058 6.66406L43.8409 7.02904L43.4769 6.66406L42.0191 8.12192L42.383 8.4869H42.384L42.0191 8.85188L43.4769 10.3097L43.8409 9.94476L44.2058 10.3097L45.6637 8.85188L45.2997 8.4869L45.6637 8.12192L44.2058 6.66406ZM47.9711 14.075L45.7122 11.8161L47.17 10.3582L49.429 12.6172L47.9711 14.075ZM54.3861 14.3194L52.9282 12.8615L54.8232 10.9665L56.2811 12.4244L54.3861 14.3194ZM19.3573 10.8551C19.347 10.7407 19.3274 10.6294 19.313 10.517C19.2903 10.3458 19.2666 10.1757 19.2346 10.0066C19.2099 9.87259 19.1789 9.74165 19.148 9.60968C19.114 9.46327 19.0769 9.3179 19.0356 9.17356C18.9975 9.04056 18.9573 8.90962 18.9129 8.77971C18.8635 8.6333 18.8098 8.48896 18.7531 8.34462C18.7078 8.22811 18.6624 8.11161 18.6119 7.9982C18.5387 7.82705 18.4562 7.66003 18.3706 7.493C18.3294 7.41361 18.2923 7.33216 18.249 7.25484C17.9747 6.75582 17.6572 6.27846 17.2922 5.83409L16.7282 5.1495L16.687 5.17424C15.0064 3.49163 12.6846 2.44824 10.1246 2.44824C7.56352 2.44824 5.2427 3.49059 3.56214 5.17321L3.5209 5.15053L2.95693 5.83409C2.77032 6.06092 2.59814 6.29599 2.43524 6.53828C2.42596 6.55271 2.41771 6.56715 2.40843 6.58158C2.26409 6.79809 2.128 7.02079 2.00221 7.24865C1.95479 7.33525 1.91251 7.42495 1.86818 7.51259C1.78673 7.67137 1.70734 7.83014 1.6362 7.99304C1.58362 8.11161 1.53723 8.23224 1.4898 8.35287C1.43515 8.49309 1.38257 8.63227 1.33515 8.77455C1.28978 8.90755 1.24854 9.04262 1.20936 9.17871C1.16915 9.31893 1.13307 9.46121 1.10007 9.60349C1.06811 9.73752 1.03718 9.87155 1.01141 10.0076C0.979445 10.1747 0.956763 10.3427 0.93408 10.5118C0.918615 10.6263 0.900057 10.7386 0.888716 10.8541C0.860878 11.1438 0.844382 11.4346 0.844382 11.7274C0.844382 12.0449 0.860878 12.3604 0.891809 12.6718C0.895933 12.7007 0.902119 12.7285 0.905212 12.7574C1.12276 14.7338 1.96819 16.5639 3.33635 18.0341C3.41883 18.1238 3.49719 18.2166 3.58379 18.3032C3.59513 18.3146 3.60544 18.328 3.61678 18.3393L4.24777 18.962L4.28591 18.9332C5.88193 20.2291 7.912 21.0086 10.1235 21.0086C12.3351 21.0086 14.3651 20.2281 15.9611 18.9332L16.0003 18.962L16.6313 18.3393C16.6447 18.3259 16.656 18.3115 16.6695 18.2981C16.7241 18.2434 16.7736 18.1836 16.8272 18.1269C18.2531 16.6361 19.1295 14.7586 19.346 12.7306C19.348 12.711 19.3522 12.6934 19.3542 12.6739C19.3851 12.3615 19.4016 12.047 19.4016 11.7284C19.4016 11.4356 19.3851 11.1449 19.3573 10.8551ZM4.35396 16.0453C4.15498 15.7813 3.97249 15.5081 3.81371 15.2225C3.7869 15.1741 3.76113 15.1246 3.73535 15.0751C3.58998 14.7998 3.46832 14.5142 3.36006 14.2235C3.33119 14.1441 3.30026 14.0657 3.27346 13.9843C3.17035 13.6709 3.0889 13.3492 3.03014 13.0223C3.01673 12.9471 3.00642 12.8708 2.99508 12.7945C2.94353 12.4439 2.90745 12.0893 2.90745 11.7274C2.90641 11.4222 2.93219 11.1181 2.97034 10.817C2.97962 10.7417 2.99302 10.6675 3.00436 10.5933C3.04457 10.3448 3.09612 10.0984 3.16108 9.85609C3.17551 9.80248 3.18685 9.74886 3.20232 9.69628C3.28686 9.4076 3.38996 9.12304 3.50956 8.84672C3.53224 8.79517 3.55905 8.74672 3.58276 8.6962C3.6838 8.47762 3.79721 8.2642 3.92093 8.05697C3.94671 8.01366 3.97249 7.97036 3.99929 7.92706C5.26538 8.99519 5.99946 10.551 5.99946 12.2429C5.99946 13.7214 5.43756 15.1019 4.43232 16.1494C4.40551 16.1154 4.38077 16.0793 4.35396 16.0453ZM10.1235 18.9445C8.54917 18.9445 7.09543 18.4321 5.9077 17.5722C7.28205 16.1432 8.0615 14.2637 8.0615 12.2429C8.0615 9.96847 7.02739 7.81777 5.3159 6.35991C6.59436 5.21445 8.27595 4.51027 10.1235 4.51027C11.9711 4.51027 13.6537 5.21445 14.9322 6.36094C13.2197 7.8188 12.1856 9.9695 12.1856 12.2429C12.1856 14.2637 12.965 16.1432 14.3404 17.5722C13.1527 18.4311 11.6989 18.9445 10.1235 18.9445ZM17.254 12.7945C17.2427 12.8708 17.2324 12.9471 17.219 13.0223C17.1602 13.3492 17.0788 13.6698 16.9757 13.9822C16.9478 14.0647 16.9159 14.1461 16.886 14.2276C16.7808 14.5132 16.6602 14.7926 16.5189 15.0627C16.489 15.1205 16.4581 15.1782 16.4272 15.2359C16.2725 15.5133 16.0952 15.7782 15.9024 16.035C15.8735 16.0731 15.8467 16.1113 15.8168 16.1484C14.8116 15.1009 14.2486 13.7214 14.2486 12.2429C14.2476 10.552 14.9817 8.99725 16.2478 7.92809C16.2766 7.97448 16.3055 8.02088 16.3333 8.06831C16.4509 8.26832 16.5602 8.47247 16.6581 8.68279C16.6849 8.7395 16.7148 8.79414 16.7396 8.85188C16.8581 9.12613 16.9602 9.4076 17.0447 9.69422C17.0612 9.74886 17.0726 9.80557 17.088 9.86021C17.153 10.1015 17.2045 10.3458 17.2437 10.5933C17.2561 10.6675 17.2685 10.7417 17.2778 10.817C17.3159 11.1181 17.3417 11.4222 17.3417 11.7274C17.3417 12.0882 17.3056 12.4429 17.254 12.7945ZM59.0906 8.99107C58.404 7.08059 57.3544 5.41138 55.9718 4.02878C54.5871 2.64516 52.9179 1.59559 51.0095 0.90996C47.0875 -0.49944 42.3665 -0.26643 37.7156 1.56981C34.3421 2.90188 31.1212 5.04124 28.4055 7.75797C25.6878 10.4757 23.5474 13.6946 22.2153 17.0691C20.5048 21.4076 20.2048 25.7997 21.3142 29.5568L21.1234 29.7475L21.3441 30.362C21.4018 30.5218 21.4812 30.6723 21.5441 30.8311C20.3306 33.7004 16.5664 37.5915 14.1228 40.0443C12.964 39.537 11.5154 39.736 10.5957 40.6567L1.77642 49.475C-0.591824 51.8442 -0.591824 55.6982 1.77745 58.0685L1.93314 58.2242C3.11777 59.4078 4.67255 60.0006 6.22835 59.9996C7.78415 59.9996 9.34099 59.4078 10.5246 58.2231L19.3439 49.4048C20.2997 48.4491 20.4997 47.0304 19.9656 45.8685C22.2472 43.6002 26.4445 39.5535 29.3241 38.4008C29.3592 38.4132 29.3912 38.4317 29.4262 38.4441L30.0417 38.6658L30.116 38.5915C31.6759 39.0926 33.3461 39.3545 35.0875 39.3545C37.6187 39.3545 40.2869 38.8287 42.9305 37.7853C46.304 36.4532 49.5248 34.3128 52.2405 31.5961C54.9583 28.8783 57.0987 25.6585 58.4308 22.285C60.2649 17.6351 60.5 12.9141 59.0906 8.99107ZM17.8871 47.946L9.06777 56.7642C7.55114 58.2809 4.90762 58.2809 3.39099 56.7642L3.23531 56.6086C1.67023 55.0435 1.67023 52.4969 3.23531 50.9318L12.0546 42.1135C12.2588 41.9094 12.531 41.797 12.8196 41.797C13.1073 41.797 13.3795 41.9094 13.5836 42.1135L14.9497 43.4786L17.8891 46.418C18.3077 46.8407 18.3077 47.5253 17.8871 47.946ZM18.6521 44.2652L17.8118 43.426L15.7333 41.3475C18.4645 38.5905 21.2585 35.5985 22.7916 32.9292C22.9855 33.2447 23.2009 33.5437 23.4195 33.8396L23.269 33.953C23.6329 34.4355 24.033 34.8974 24.4608 35.3253C24.8887 35.7542 25.3496 36.1553 25.8311 36.5171L25.9135 36.4068C26.2868 36.6955 26.6734 36.9656 27.0776 37.2141C24.1577 38.9019 20.8719 42.0599 18.6521 44.2652ZM56.9884 20.1766L56.8946 20.0827L55.4367 21.5406L56.1862 22.2901C55.0573 24.8698 53.419 27.3329 51.391 29.498L50.9363 29.0433L49.4785 30.5012L49.928 30.9507C47.7329 32.9622 45.2399 34.5726 42.6408 35.6666L41.9757 35.0015L40.5437 36.4347C37.2795 37.4347 34.0699 37.5502 31.2697 36.7821L30.1386 35.6511L29.6046 36.1852C28.987 35.9171 28.4014 35.6129 27.8601 35.2614C27.7993 35.2212 27.7415 35.1768 27.6817 35.1356C27.4394 34.9706 27.2003 34.8015 26.9745 34.6201C26.6827 34.3829 26.3992 34.1345 26.1332 33.8685C25.8651 33.6004 25.6156 33.3158 25.3774 33.022C25.2083 32.8106 25.0506 32.5869 24.8959 32.3621C24.8423 32.2859 24.7856 32.2127 24.7351 32.1343C24.5423 31.8363 24.3598 31.5281 24.1928 31.2074C24.1907 31.2033 24.1876 31.1992 24.1856 31.194C24.0113 30.86 23.8494 30.5125 23.703 30.1537L23.6835 30.1053L24.1381 29.6506L23.2185 28.7309C22.3998 25.7482 22.5988 22.2974 23.7876 18.8115L24.7866 17.8124L24.333 17.3588C25.4269 14.7596 27.0374 12.2666 29.0489 10.0716L29.286 10.3097L30.7439 8.85188L30.5005 8.60856C32.6657 6.58055 35.1288 4.94123 37.7094 3.8133L38.2466 4.35046L39.4467 3.15036C41.5242 2.43999 43.5924 2.06057 45.5565 2.06057C46.6813 2.06057 47.7659 2.18842 48.8042 2.42349L50.0826 3.70195L50.7507 3.03385C52.1838 3.61329 53.4541 4.42779 54.5129 5.48561C55.4955 6.4692 56.2677 7.63734 56.8389 8.9488L56.0842 9.7035L57.542 11.1614L57.5668 11.1366C58.206 13.8925 58.005 17.0165 56.9884 20.1766Z" fill="#999999"/>
<path d="M30.2887 22.1665L27.4603 24.9949" stroke="#FE3A19" stroke-width="2.5" stroke-linejoin="round"/>
<path d="M27.4603 22.1665L30.2888 24.9949" stroke="#FE3A19" stroke-width="2.5" stroke-linejoin="round"/>
<path d="M37.7604 14.4873L34.9319 17.3157" stroke="#FE3A19" stroke-width="2.5" stroke-linejoin="round"/>
<path d="M34.932 14.4873L37.7604 17.3157" stroke="#FE3A19" stroke-width="2.5" stroke-linejoin="round"/>
<path d="M45.3876 6.80811L42.5591 9.63653" stroke="#FE3A19" stroke-width="2.5" stroke-linejoin="round"/>
<path d="M42.5592 6.80811L45.3876 9.63653" stroke="#FE3A19" stroke-width="2.5" stroke-linejoin="round"/>
<path d="M52.911 14.4873L50.0826 17.3157" stroke="#FE3A19" stroke-width="2.5" stroke-linejoin="round"/>
<path d="M50.0826 14.4873L52.9111 17.3157" stroke="#FE3A19" stroke-width="2.5" stroke-linejoin="round"/>
<path d="M45.3876 22.1665L42.5591 24.9949" stroke="#FE3A19" stroke-width="2.5" stroke-linejoin="round"/>
<path d="M42.5592 22.1665L45.3876 24.9949" stroke="#FE3A19" stroke-width="2.5" stroke-linejoin="round"/>
<path d="M37.7604 29.2747L34.9319 32.1031" stroke="#FE3A19" stroke-width="2.5" stroke-linejoin="round"/>
<path d="M34.932 29.2747L37.7604 32.1031" stroke="#FE3A19" stroke-width="2.5" stroke-linejoin="round"/>
</g>
<defs>
<clipPath id="clip0_2632_1226">
<rect width="60" height="60" fill="white" transform="translate(0 -0.000488281)"/>
</clipPath>
</defs>
</svg>
